<svg width="24" height="24" viewBox="0 0 24 24" fill="none" xmlns="http://www.w3.org/2000/svg">
<path d="M17 5.75C17 5.05964 17.5596 4.5 18.25 4.5C18.9403 4.5 19.5 5.05964 19.5 5.75C19.5 6.44035 18.9403 7 18.25 7C17.5596 7 17 6.44035 17 5.75Z" fill="#57CC99"/>
<path fill-rule="evenodd" clip-rule="evenodd" d="M12 6.0625C8.72079 6.0625 6.06248 8.72081 6.06248 12C6.06248 15.2792 8.72079 17.9375 12 17.9375C15.2792 17.9375 17.9375 15.2792 17.9375 12C17.9375 8.72081 15.2792 6.0625 12 6.0625ZM7.93748 12C7.93748 9.75634 9.75633 7.9375 12 7.9375C14.2436 7.9375 16.0625 9.75634 16.0625 12C16.0625 14.2437 14.2436 16.0625 12 16.0625C9.75633 16.0625 7.93748 14.2437 7.93748 12Z" fill="#57CC99"/>
<path fill-rule="evenodd" clip-rule="evenodd" d="M18.5728 0.541265C14.2396 0.0569643 9.76042 0.0569643 5.4272 0.541265C2.91213 0.822361 0.881708 2.80362 0.586017 5.33178C0.0678446 9.76216 0.0678446 14.2378 0.586017 18.6682C0.881708 21.1964 2.91213 23.1776 5.4272 23.4587C9.76042 23.943 14.2396 23.943 18.5728 23.4587C21.0879 23.1776 23.1183 21.1964 23.414 18.6682C23.9322 14.2378 23.9322 9.76216 23.414 5.33178C23.1183 2.80362 21.0879 0.822361 18.5728 0.541265ZM5.63546 2.40466C9.83027 1.93583 14.1697 1.93583 18.3645 2.40466C20.0272 2.59049 21.359 3.9025 21.5517 5.5496C22.0529 9.83526 22.0529 14.1647 21.5517 18.4504C21.359 20.0975 20.0272 21.4095 18.3645 21.5953C14.1697 22.0642 9.83027 22.0642 5.63546 21.5953C3.97283 21.4095 2.64097 20.0975 2.44832 18.4504C1.94708 14.1647 1.94708 9.83526 2.44832 5.5496C2.64097 3.9025 3.97282 2.59049 5.63546 2.40466Z" fill="#57CC99"/>
</svg>
