<svg width="13" height="35" viewBox="0 0 13 35" fill="none" xmlns="http://www.w3.org/2000/svg">
<g clip-path="url(#clip0_83_128)">
<path d="M-29.032 30.2892C-30.186 30.2892 -31.399 29.7434 -32.446 28.753L-37.396 24.0705C-38.321 23.1965 -38.874 22.2174 -38.995 21.2393C-39.115 20.2726 -38.798 19.3777 -38.103 18.7203L-25.376 6.67932C-23.076 4.50459 -20.449 3.2777 -17.408 1.85784C-13.52 0.0416193 -9.11303 -2.01581 -4.16203 -6.69825L-3.80803 -7.03311L0.434971 -3.02041L0.0809708 -2.68554C-4.84203 1.97135 -6.98603 6.09378 -8.87803 9.73094C-10.386 12.6312 -11.689 15.1361 -14.062 17.3808L-26.789 29.4218C-27.388 29.9884 -28.164 30.2892 -29.032 30.2892ZM-3.81003 -5.69649C-8.73103 -1.13798 -13.1 0.901484 -16.964 2.70635C-19.926 4.08932 -22.485 5.28405 -24.668 7.34811L-37.395 19.3881C-37.876 19.8431 -38.086 20.4447 -38.001 21.1277C-37.906 21.893 -37.452 22.6791 -36.688 23.4008L-31.738 28.0832C-30.88 28.8949 -29.919 29.3423 -29.031 29.3423C-28.434 29.3423 -27.903 29.138 -27.495 28.752L-14.767 16.7111C-12.511 14.577 -11.243 12.1374 -9.77303 9.31284C-7.89303 5.69743 -5.76703 1.61 -0.976032 -3.01852L-3.81003 -5.69649Z" fill="#E4E4E4"/>
<path d="M0.436012 -2.27121C0.0350113 -2.27121 -0.341988 -2.41783 -0.624989 -2.68553L-4.16099 -6.02945C-4.74499 -6.58283 -4.74499 -7.48337 -4.16099 -8.03675L-2.74599 -9.37432C-2.17999 -9.90688 -1.18999 -9.90688 -0.623989 -9.37432L2.91201 -6.02945C3.19401 -5.7627 3.35001 -5.40607 3.35001 -5.0258C3.35001 -4.64553 3.19401 -4.28986 2.91201 -4.02216L1.49801 -2.68459C1.21401 -2.41878 0.837013 -2.27121 0.436012 -2.27121ZM-1.68599 -8.8427C-1.81999 -8.8427 -1.94599 -8.79445 -2.03999 -8.70553L-3.45399 -7.36797C-3.64799 -7.18351 -3.64799 -6.8827 -3.45399 -6.69824L0.0820122 -3.35432C0.270012 -3.17648 0.602013 -3.17648 0.789013 -3.35432L2.20301 -4.69188C2.29701 -4.7808 2.34801 -4.89905 2.34801 -5.02675C2.34801 -5.15445 2.29701 -5.2727 2.20301 -5.36161L-1.33199 -8.70648C-1.42599 -8.79445 -1.55199 -8.8427 -1.68599 -8.8427ZM-26.275 28.9355L-26.543 28.8797C-26.743 28.8381 -28.619 28.3585 -32.799 24.4045C-36.981 20.4495 -37.486 18.6749 -37.53 18.4857L-37.589 18.2322L-27.526 8.71311L-27.357 9.6042C-27.356 9.60987 -26.938 11.2189 -22.899 15.0387C-18.861 18.8584 -17.159 19.2538 -17.143 19.2576L-16.256 19.4458L-16.888 20.056L-26.275 28.9355ZM-36.463 18.5055C-36.201 19.076 -35.245 20.7522 -32.091 23.7347C-28.944 26.7116 -27.172 27.6188 -26.563 27.8695L-18.129 19.8923C-19.049 19.4524 -20.795 18.3674 -23.606 15.7074C-26.418 13.0474 -27.564 11.3968 -28.029 10.5265L-36.463 18.5055ZM-14.581 4.18109L-16.413 2.44811C-15.801 2.16055 -15.175 1.86541 -14.533 1.55041L-13.242 2.77163C-12.963 2.66852 -12.651 2.60136 -12.292 2.60136C-12.18 2.60136 -12.081 2.62028 -11.976 2.63068L-14.346 0.38879L-14.672 0.551494C-15.633 1.0292 -16.559 1.46149 -17.481 1.8919L-18.106 2.1842L-14.664 5.44014C-14.741 5.02203 -14.711 4.58595 -14.581 4.18109ZM-9.90599 4.58974C-9.84499 5.00122 -9.88099 5.42784 -10.02 5.81852L-8.62399 7.13906C-8.95499 7.7473 -9.26699 8.34041 -9.56999 8.92122L-11.409 7.18163C-11.672 7.27149 -11.961 7.33109 -12.292 7.33109C-12.439 7.33109 -12.572 7.31122 -12.706 7.2923L-9.28999 10.5237L-8.92699 9.82555C-8.49699 9.00068 -8.05399 8.14933 -7.56899 7.26866L-7.39999 6.96122L-9.90599 4.58974Z" fill="#E4E4E4"/>
<path d="M-12.293 7.84473C-13.094 7.84473 -13.847 7.54865 -14.414 7.01324C-15.583 5.90648 -15.583 4.1073 -14.414 3.00054C-13.28 1.92878 -11.306 1.92878 -10.172 3.00054C-9.00302 4.1073 -9.00302 5.90648 -10.172 7.01324C-10.739 7.54865 -11.492 7.84473 -12.293 7.84473ZM-12.293 3.115C-12.827 3.115 -13.329 3.31175 -13.707 3.66932C-14.487 4.40621 -14.487 5.60756 -13.707 6.34446C-12.951 7.05959 -11.635 7.05959 -10.879 6.34446C-10.099 5.60756 -10.099 4.40621 -10.879 3.66932C-11.257 3.31175 -11.759 3.115 -12.293 3.115ZM7.09198 -10.8509C6.95898 -10.8509 6.83198 -10.9011 6.73798 -10.9891L4.61698 -12.9954C4.42198 -13.1799 4.42198 -13.4797 4.61698 -13.6642L8.15198 -17.0081C8.34698 -17.1926 8.66398 -17.1926 8.85898 -17.0081L10.98 -15.0018C11.074 -14.9128 11.126 -14.7927 11.126 -14.6669C11.126 -14.5411 11.073 -14.4209 10.98 -14.332L7.44498 -10.9881C7.35198 -10.9001 7.22498 -10.8509 7.09198 -10.8509ZM5.67798 -13.3303L7.09198 -11.9927L9.91998 -14.6678L8.50598 -16.0054L5.67798 -13.3303ZM6.49998 19.8649C5.80598 19.8649 5.17998 19.6 4.63898 19.0769C1.67198 16.2107 1.90898 5.6577 1.98698 2.18986C1.99398 1.8427 1.99998 1.57973 1.99998 1.41892V0.945944H11V1.41892C11 1.57973 11.006 1.8427 11.014 2.18986C11.092 5.6577 11.328 16.2097 8.36198 19.0769C7.81998 19.6 7.19398 19.8649 6.49998 19.8649ZM2.99298 1.89189C2.99098 1.98932 2.98898 2.09527 2.98598 2.21067C2.78298 11.2501 3.57998 16.7016 5.35298 18.4157C6.05498 19.0939 6.94498 19.0939 7.64698 18.4157C9.41998 16.7016 10.217 11.2501 10.014 2.21067C10.011 2.09527 10.009 1.98932 10.007 1.89189H2.99298Z" fill="#E4E4E4"/>
<path d="M7 18.9189H6V33.1081H7V18.9189Z" fill="#E4E4E4"/>
<path d="M-4.5 34.0541H-19C-19.276 34.0541 -19.5 33.8422 -19.5 33.5811C-19.5 33.32 -19.276 33.1081 -19 33.1081H-4.5C-4.224 33.1081 -4 33.32 -4 33.5811C-4 33.8422 -4.224 34.0541 -4.5 34.0541ZM-1.5 34.0541H-2C-2.276 34.0541 -2.5 33.8422 -2.5 33.5811C-2.5 33.32 -2.276 33.1081 -2 33.1081H-1.5C-1.224 33.1081 -1 33.32 -1 33.5811C-1 33.8422 -1.224 34.0541 -1.5 34.0541ZM10.5 34.0541H2.5C2.224 34.0541 2 33.8422 2 33.5811C2 33.32 2.224 33.1081 2.5 33.1081H10.5C10.776 33.1081 11 33.32 11 33.5811C11 33.8422 10.776 34.0541 10.5 34.0541ZM-20 -10.5615C-19.685 -10.1254 -19.296 -9.75744 -18.835 -9.45946C-19.304 -9.15582 -19.698 -8.78027 -20.017 -8.33473C-20.335 -8.77176 -20.727 -9.14257 -21.19 -9.44433C-20.718 -9.74514 -20.321 -10.1178 -20 -10.5615ZM-20 -14.1892C-20 -11.0118 -21.641 -9.45946 -25 -9.45946C-21.656 -9.45946 -20 -7.87784 -20 -4.72973C-20 -7.90717 -18.375 -9.45946 -15 -9.45946C-18.375 -9.45946 -20 -10.9815 -20 -14.1892ZM-25.515 -1.98555C-25.335 -1.76892 -25.13 -1.575 -24.902 -1.40473C-25.124 -1.23636 -25.323 -1.04622 -25.5 -0.835274C-25.682 -1.0519 -25.888 -1.24771 -26.118 -1.41892C-25.895 -1.58636 -25.693 -1.7746 -25.515 -1.98555ZM-25.5 -5.20271C-25.5 -2.66 -26.813 -1.41892 -29.5 -1.41892C-26.825 -1.41892 -25.5 -0.153247 -25.5 2.36486C-25.5 -0.177842 -24.2 -1.41892 -21.5 -1.41892C-24.2 -1.41892 -25.5 -2.63636 -25.5 -5.20271Z" fill="#E4E4E4"/>
<path d="M10 7.56757H4V8.51351H10V7.56757Z" fill="#E4E4E4"/>
<path d="M9 9.45946H8V10.4054H9V9.45946Z" fill="#E4E4E4"/>
<path d="M7 11.3513H6V12.2973H7V11.3513Z" fill="#E4E4E4"/>
<path d="M9 3.78378H8V4.72973H9V3.78378Z" fill="#E4E4E4"/>
<path d="M7 5.67567H6V6.62162H7V5.67567Z" fill="#E4E4E4"/>
<path d="M8 14.1892H7V15.1351H8V14.1892Z" fill="#E4E4E4"/>
</g>
<defs>
<clipPath id="clip0_83_128">
<rect width="13" height="35" fill="white"/>
</clipPath>
</defs>
</svg>
