<svg width="26" height="28" viewBox="0 0 26 28" fill="none" xmlns="http://www.w3.org/2000/svg">
<path d="M13.5 28C13.224 28 13 27.776 13 27.5V16.5C13 16.224 13.224 16 13.5 16C13.776 16 14 16.224 14 16.5V27.5C14 27.776 13.776 28 13.5 28Z" fill="#E4E4E4"/>
<path d="M19.2675 28H7.53337C7.23895 28 7 27.7675 7 27.481C7 27.1946 7.23895 26.9621 7.53337 26.9621H19.2675C19.5619 26.9621 19.8009 27.1946 19.8009 27.481C19.8009 27.7675 19.5619 28 19.2675 28ZM18.0941 6.18971C18.0279 6.18971 17.9607 6.1783 17.8957 6.15235C17.6226 6.04544 17.4892 5.7434 17.598 5.47768L19.3048 1.32591C19.3859 1.12871 19.5822 1 19.7998 1H22.4666C22.7611 1 23 1.2325 23 1.51897C23 1.80544 22.7611 2.03794 22.4666 2.03794H20.1603L18.588 5.8638C18.5058 6.0662 18.3053 6.18971 18.0941 6.18971Z" fill="#E4E4E4"/>
<path d="M13.4999 17C13.3458 17 13.198 16.9302 13.0977 16.808L4.12578 5.89891C3.99278 5.73636 3.96217 5.50945 4.04873 5.31636C4.13528 5.12327 4.32211 5 4.52793 5H22.4718C22.6776 5 22.8644 5.12327 22.951 5.31636C23.0375 5.50945 23.008 5.73636 22.8739 5.89891L13.902 16.808C13.8017 16.9302 13.654 17 13.4999 17ZM5.66895 6.09091L13.4999 15.6124L21.3308 6.09091H5.66895Z" fill="#E4E4E4"/>
<path d="M18.4865 10H8.21622C7.93276 10 7.7027 9.77615 7.7027 9.50033C7.7027 9.22452 7.93276 9.00067 8.21622 9.00067H18.4865C18.7699 9.00067 19 9.22452 19 9.50033C19 9.77615 18.7699 10 18.4865 10ZM4.62162 9.994C2.07357 9.994 0 7.97635 0 5.497C0 3.01765 2.07357 1 4.62162 1C7.16762 1 9.24016 3.01566 9.24324 5.492C9.24324 5.62392 9.18984 5.75183 9.0933 5.84577C8.99676 5.93971 8.86632 5.99167 8.72973 5.99167L5.72362 5.99467L7.65957 8.23218C7.74686 8.33311 7.79 8.46402 7.7787 8.59693C7.76741 8.72885 7.70168 8.85077 7.59795 8.93571C6.76605 9.61825 5.70924 9.994 4.62162 9.994ZM4.62162 1.99933C2.63946 1.99933 1.02703 3.56829 1.02703 5.497C1.02703 7.42572 2.63946 8.99467 4.62162 8.99467C5.29432 8.99467 5.95265 8.80979 6.52059 8.46702L4.2293 5.81879C4.09989 5.66989 4.07216 5.46203 4.15535 5.28614C4.23957 5.11026 4.42135 4.99634 4.62059 4.99634L8.17822 4.99234C7.92762 3.30246 6.42713 1.99933 4.62162 1.99933Z" fill="#E4E4E4"/>
<path d="M4.5 6C4.224 6 4 5.776 4 5.5V3.5C4 3.224 4.224 3 4.5 3C4.776 3 5 3.224 5 3.5V5.5C5 5.776 4.776 6 4.5 6Z" fill="#E4E4E4"/>
<path d="M4.5 8C4.224 8 4 7.776 4 7.5V5.5C4 5.224 4.224 5 4.5 5C4.776 5 5 5.224 5 5.5V7.5C5 7.776 4.776 8 4.5 8Z" fill="#E4E4E4"/>
<path d="M4.5 6H2.5C2.224 6 2 5.776 2 5.5C2 5.224 2.224 5 2.5 5H4.5C4.776 5 5 5.224 5 5.5C5 5.776 4.776 6 4.5 6Z" fill="#E4E4E4"/>
<path d="M4.41454 6C4.30847 6 4.2024 5.95941 4.12119 5.87905C3.9596 5.71751 3.9596 5.4549 4.12119 5.29336L5.29294 4.12116C5.45453 3.95961 5.71722 3.95961 5.87881 4.12116C6.0404 4.2827 6.0404 4.5453 5.87881 4.70684L4.70789 5.87822C4.62668 5.95941 4.52061 6 4.41454 6Z" fill="#E4E4E4"/>
<path d="M2.62182 8C2.46271 8 2.3036 7.93911 2.18179 7.81858C1.9394 7.57627 1.9394 7.18236 2.18179 6.94004L3.9394 5.18173C4.18179 4.93942 4.57582 4.93942 4.81821 5.18173C5.0606 5.42404 5.0606 5.81796 4.81821 6.06027L3.0606 7.81733C2.94003 7.93911 2.78092 8 2.62182 8Z" fill="#E4E4E4"/>
<path d="M4.37844 6C4.2194 6 4.06036 5.95941 3.9386 5.87905L2.18171 4.70684C1.93943 4.5453 1.93943 4.2827 2.18171 4.12116C2.424 3.95961 2.81787 3.95961 3.06016 4.12116L4.81829 5.29253C5.06057 5.45407 5.06057 5.71668 4.81829 5.87822C4.69652 5.95941 4.53748 6 4.37844 6Z" fill="#E4E4E4"/>
<path d="M11.5 12C11.7761 12 12 11.7761 12 11.5C12 11.2239 11.7761 11 11.5 11C11.2239 11 11 11.2239 11 11.5C11 11.7761 11.2239 12 11.5 12Z" fill="#E4E4E4"/>
<path d="M15.5 14C15.7761 14 16 13.7761 16 13.5C16 13.2239 15.7761 13 15.5 13C15.2239 13 15 13.2239 15 13.5C15 13.7761 15.2239 14 15.5 14Z" fill="#E4E4E4"/>
<path d="M12.5 15C12.7761 15 13 14.7761 13 14.5C13 14.2239 12.7761 14 12.5 14C12.2239 14 12 14.2239 12 14.5C12 14.7761 12.2239 15 12.5 15Z" fill="#E4E4E4"/>
<path d="M14 12C14.5523 12 15 11.7761 15 11.5C15 11.2239 14.5523 11 14 11C13.4477 11 13 11.2239 13 11.5C13 11.7761 13.4477 12 14 12Z" fill="#E4E4E4"/>
</svg>
