<svg width="30" height="28" viewBox="0 0 30 28" fill="none" xmlns="http://www.w3.org/2000/svg">
<g clip-path="url(#clip0_63_150)">
<path d="M18.5 5.25C18.5 5.40471 18.5658 5.55308 18.6831 5.66248C18.8003 5.77187 18.9592 5.83333 19.125 5.83333C19.2908 5.83333 19.4497 5.77187 19.5669 5.66248C19.6842 5.55308 19.75 5.40471 19.75 5.25C19.7434 5.07783 19.8008 4.90884 19.9125 4.77167C20.1385 4.45387 20.2561 4.0797 20.25 3.69833C20.2561 3.31697 20.1385 2.9428 19.9125 2.625C19.8008 2.48783 19.7434 2.31883 19.75 2.14667C19.7434 1.9745 19.8008 1.80551 19.9125 1.66833C20.1409 1.34724 20.2587 0.968658 20.25 0.583333C20.25 0.428624 20.1842 0.280251 20.0669 0.170854C19.9497 0.0614582 19.7908 0 19.625 0C19.4592 0 19.3003 0.0614582 19.1831 0.170854C19.0658 0.280251 19 0.428624 19 0.583333C19.0066 0.7555 18.9492 0.924494 18.8375 1.06167C18.6115 1.37946 18.4939 1.75363 18.5 2.135C18.4939 2.51637 18.6115 2.89054 18.8375 3.20833C18.9492 3.34551 19.0066 3.5145 19 3.68667C19.0066 3.85883 18.9492 4.02783 18.8375 4.165C18.6091 4.48609 18.4913 4.86468 18.5 5.25ZM14.75 5.25C14.75 5.40471 14.8158 5.55308 14.9331 5.66248C15.0503 5.77187 15.2092 5.83333 15.375 5.83333C15.5408 5.83333 15.6997 5.77187 15.8169 5.66248C15.9342 5.55308 16 5.40471 16 5.25C15.9934 5.07783 16.0508 4.90884 16.1625 4.77167C16.3885 4.45387 16.5061 4.0797 16.5 3.69833C16.5061 3.31697 16.3885 2.9428 16.1625 2.625C16.0508 2.48783 15.9934 2.31883 16 2.14667C15.9934 1.9745 16.0508 1.80551 16.1625 1.66833C16.3909 1.34724 16.5087 0.968658 16.5 0.583333C16.5 0.428624 16.4342 0.280251 16.3169 0.170854C16.1997 0.0614582 16.0408 0 15.875 0C15.7092 0 15.5503 0.0614582 15.4331 0.170854C15.3158 0.280251 15.25 0.428624 15.25 0.583333C15.2566 0.7555 15.1992 0.924494 15.0875 1.06167C14.8615 1.37946 14.7439 1.75363 14.75 2.135C14.7439 2.51637 14.8615 2.89054 15.0875 3.20833C15.1992 3.34551 15.2566 3.5145 15.25 3.68667C15.2566 3.85883 15.1992 4.02783 15.0875 4.165C14.8591 4.48609 14.7413 4.86468 14.75 5.25ZM11 5.25C11 5.40471 11.0658 5.55308 11.1831 5.66248C11.3003 5.77187 11.4592 5.83333 11.625 5.83333C11.7908 5.83333 11.9497 5.77187 12.0669 5.66248C12.1842 5.55308 12.25 5.40471 12.25 5.25C12.2434 5.07783 12.3008 4.90884 12.4125 4.77167C12.6385 4.45387 12.7561 4.0797 12.75 3.69833C12.7561 3.31697 12.6385 2.9428 12.4125 2.625C12.3008 2.48783 12.2434 2.31883 12.25 2.14667C12.2434 1.9745 12.3008 1.80551 12.4125 1.66833C12.6409 1.34724 12.7587 0.968658 12.75 0.583333C12.75 0.428624 12.6842 0.280251 12.5669 0.170854C12.4497 0.0614582 12.2908 0 12.125 0C11.9592 0 11.8003 0.0614582 11.6831 0.170854C11.5658 0.280251 11.5 0.428624 11.5 0.583333C11.5066 0.7555 11.4492 0.924494 11.3375 1.06167C11.1115 1.37946 10.9939 1.75363 11 2.135C10.9939 2.51637 11.1115 2.89054 11.3375 3.20833C11.4492 3.34551 11.5066 3.5145 11.5 3.68667C11.5066 3.85883 11.4492 4.02783 11.3375 4.165C11.1091 4.48609 10.9913 4.86468 11 5.25ZM29.375 22.1667H21.875C22.5151 21.6769 23.0938 21.1212 23.6 20.51C24.9422 20.0872 26.1614 19.3805 27.1625 18.445C28.0376 17.6338 28.7313 16.6685 29.2034 15.605C29.6755 14.5415 29.9165 13.4011 29.9125 12.25C29.9125 11.7879 29.7167 11.3445 29.3678 11.0167C29.0188 10.6888 28.5451 10.5031 28.05 10.5H26.125L26.25 8.79667C26.2569 8.71623 26.2459 8.63533 26.2176 8.55908C26.1893 8.48283 26.1443 8.41289 26.0856 8.35368C26.0269 8.29447 25.9556 8.24727 25.8763 8.21508C25.797 8.18289 25.7115 8.16641 25.625 8.16667H4.375C4.28967 8.16652 4.20521 8.18269 4.12683 8.21417C4.04845 8.24565 3.97781 8.29177 3.91925 8.3497C3.8607 8.40763 3.81547 8.47614 3.78636 8.551C3.75726 8.62587 3.74488 8.7055 3.75 8.785L4.225 15.2483C4.34386 16.5869 4.75045 17.8893 5.42052 19.078C6.09058 20.2666 7.01038 21.3171 8.125 22.1667H0.625C0.45924 22.1667 0.300269 22.2281 0.183058 22.3375C0.065848 22.4469 0 22.5953 0 22.75C0 24.1424 0.592632 25.4777 1.64752 26.4623C2.70242 27.4469 4.13316 28 5.625 28H24.375C25.8668 28 27.2976 27.4469 28.3525 26.4623C29.4074 25.4777 30 24.1424 30 22.75C30 22.5953 29.9342 22.4469 29.8169 22.3375C29.6997 22.2281 29.5408 22.1667 29.375 22.1667ZM25.775 15.2367L26.0375 11.6667H28.05C28.2158 11.6667 28.3747 11.7281 28.4919 11.8375C28.6092 11.9469 28.675 12.0953 28.675 12.25C28.6737 13.5579 28.3106 14.8434 27.6208 15.9819C26.9309 17.1204 25.9378 18.0733 24.7375 18.7483C25.3074 17.6458 25.6589 16.456 25.775 15.2367ZM5.475 15.1667L5 9.33333H25L24.575 15.1667C24.4535 16.6148 23.9491 18.0122 23.1071 19.2339C22.2651 20.4555 21.1116 21.4631 19.75 22.1667H10.3C8.94197 21.4591 7.79144 20.4504 6.94996 19.2296C6.10848 18.0088 5.60192 16.6134 5.475 15.1667ZM24.375 26.8333H5.625C4.56597 26.841 3.53971 26.4909 2.73561 25.8476C1.93151 25.2043 1.40385 24.3113 1.25 23.3333H28.75C28.5962 24.3113 28.0685 25.2043 27.2644 25.8476C26.4603 26.4909 25.434 26.841 24.375 26.8333Z" fill="#E4E4E4"/>
</g>
<defs>
<clipPath id="clip0_63_150">
<rect width="30" height="28" fill="white"/>
</clipPath>
</defs>
</svg>
