<svg width="22" height="28" viewBox="0 0 22 28" fill="none" xmlns="http://www.w3.org/2000/svg">
<path fill-rule="evenodd" clip-rule="evenodd" d="M20.8009 0.184578C20.7425 0.126593 20.6722 0.0803409 20.5943 0.0486185C20.5164 0.0168962 20.4326 0.000381054 20.3477 7.41197e-06H0.615924C0.531031 -0.000397985 0.446977 0.0158306 0.369089 0.0476691C0.2912 0.0795075 0.221179 0.12626 0.163468 0.184958C0.105757 0.243656 0.0616144 0.313012 0.0338402 0.388643C0.00606599 0.464274 -0.00473418 0.544519 0.00212554 0.624293L1.84353 26.8157C1.85335 26.9635 1.92271 27.1022 2.03742 27.2034C2.15213 27.3046 2.30352 27.3607 2.46063 27.3602H18.4623C18.7868 27.3602 19.0596 27.1216 19.0794 26.8157L20.9659 0.626382C20.9748 0.464385 20.9155 0.305612 20.8009 0.184578ZM19.6855 1.16978L19.1828 8.1418C18.0806 8.07128 17.4668 7.68444 16.8002 7.22192C16.0049 6.67126 15.1007 6.05114 13.3649 6.05114C11.6335 6.05114 10.7304 6.67126 9.93622 7.22192C9.20142 7.728 8.56783 8.16978 7.24123 8.16978C5.91023 8.16978 5.27662 7.728 4.54402 7.22192C3.83452 6.73348 3.01502 6.21081 1.62462 6.0957L1.27923 1.16978H19.6855ZM17.8837 26.1914H3.03813L1.70823 7.26756C2.63663 7.3806 3.20092 7.73943 3.81142 8.16047C4.60452 8.71321 5.50543 9.33334 7.24013 9.33334C8.97373 9.33334 9.87462 8.71321 10.6688 8.16047C11.4036 7.65647 12.035 7.21464 13.3649 7.21464C14.6992 7.21464 15.335 7.65647 16.0676 8.16047C16.7958 8.66447 17.6428 9.20374 19.0992 9.29707L17.8837 26.1914ZM3.60793 11.0289C3.4445 11.0391 3.29184 11.1093 3.1828 11.2245C3.07377 11.3397 3.01708 11.4907 3.02493 11.6449L3.65303 22.8863C3.66068 23.0358 3.72925 23.1768 3.84442 23.2797C3.9596 23.3827 4.1125 23.4398 4.27123 23.4391C4.28223 23.4391 4.29323 23.4391 4.30423 23.437C4.46766 23.4284 4.62087 23.3593 4.73048 23.2447C4.8401 23.1301 4.89723 22.9793 4.88943 22.8252L4.26243 11.5817C4.24153 11.2623 3.97313 10.9988 3.60793 11.0289Z" fill="#E4E4E4"/>
</svg>
