<svg width="20" height="35" viewBox="0 0 20 35" fill="none" xmlns="http://www.w3.org/2000/svg">
<g clip-path="url(#clip0_65_165)">
<path d="M10.6744 22.4409C10.6744 20.7738 12.3989 19.507 14.067 18.2818C14.7335 17.7922 15.3625 17.3299 15.8808 16.8433C18.1186 14.7421 18.0922 12.9178 18.0922 11.4525V11.1382C18.0922 7.78121 15.4946 1.68876 15.3931 1.42764H4.60534C4.50394 1.68876 1.90797 7.76224 1.90797 11.1382V11.4525C1.90797 12.9147 1.88075 14.7421 4.11855 16.8433C4.63678 17.33 5.26637 17.7923 5.93278 18.2819C7.60085 19.507 9.32574 20.774 9.32574 22.441V34.2007H3.25666V35.4145H16.7435V34.2007H10.6744V22.4409ZM5.50972 2.64146H14.4888C14.9405 3.85452 16.1332 7.39901 16.5822 9.92435H3.41631C3.86534 7.39901 5.05799 3.85452 5.50972 2.64146ZM10.0001 19.7423C9.7499 19.7423 9.55771 19.6725 9.3957 19.5334L9.39612 19.5353C8.65401 18.7155 7.69054 18.0061 6.78549 17.3414C6.15186 16.876 5.55338 16.4364 5.09213 16.0034C3.23314 14.2579 3.24376 12.8993 3.25497 11.461C3.25582 11.3527 2.42821 14.5833 6.08701 17.9861L10.0001 20.4167L13.2132 18.2818C18.0922 15.0694 16.7427 11.3528 16.7436 11.461C16.7548 12.8993 16.7654 14.2579 14.9064 16.0034C14.4452 16.4364 13.8469 16.876 13.2132 17.3414C12.3082 18.0061 11.3449 18.7156 10.6028 19.5353L10.6036 19.5334C10.4416 19.6725 10.253 19.7423 10.0001 19.7423Z" fill="#E4E4E4"/>
</g>
<defs>
<clipPath id="clip0_65_165">
<rect width="20" height="35" fill="white"/>
</clipPath>
</defs>
</svg>
