<svg width="24" height="30" viewBox="0 0 24 30" fill="none" xmlns="http://www.w3.org/2000/svg">
<path d="M20.075 28.8651L12.6169 26.1393V19.8427C15.4754 19.7683 17.9507 18.895 19.7754 17.3179C21.8616 15.5135 22.9648 12.8859 22.9648 9.71847C22.9648 7.04116 21.3718 2.6039 20.0019 0.573449C19.963 0.515791 19.9107 0.468595 19.8496 0.435989C19.7884 0.403384 19.7203 0.386362 19.6511 0.386414H4.78767C4.64751 0.386414 4.51565 0.456599 4.4369 0.573449C3.04249 2.64033 1.42126 7.08555 1.42126 9.71847C1.42126 12.8844 2.53235 15.5124 4.63395 17.319C6.45674 18.8859 8.92042 19.7554 11.7691 19.8396V26.1074L4.5213 28.867C4.45923 28.8671 4.39793 28.8809 4.34173 28.9074C4.28553 28.9339 4.23581 28.9726 4.19607 29.0206C4.15633 29.0686 4.12755 29.1248 4.11176 29.1853C4.09597 29.2457 4.09355 29.3089 4.10468 29.3704C4.11581 29.4319 4.14022 29.4901 4.17617 29.5411C4.21213 29.592 4.25876 29.6344 4.31276 29.6652C4.36677 29.696 4.42683 29.7145 4.48871 29.7194C4.55059 29.7242 4.61278 29.7153 4.67087 29.6933H19.9299C20.0297 29.6936 20.1264 29.6583 20.2029 29.5938C20.2795 29.5293 20.331 29.4396 20.3483 29.3407C20.3656 29.2417 20.3477 29.1397 20.2977 29.0527C20.2477 28.9657 20.1688 28.8993 20.075 28.8651ZM5.01561 1.23965H19.4228C20.2042 2.47036 21.0406 4.4625 21.5707 6.38483C20.7852 7.06089 16.9271 9.96241 10.9727 7.56471C6.9375 5.93944 3.62685 6.99374 2.56965 7.42434C3.06133 5.23113 4.07671 2.71355 5.01561 1.23965ZM2.26899 9.71847C2.26899 9.31367 2.31269 8.85954 2.38692 8.38038C2.45888 8.38456 2.53197 8.37735 2.60054 8.34245C2.63634 8.32461 6.21448 6.56807 10.6577 8.35762C12.4462 9.07731 14.064 9.34819 15.4863 9.34819C18.6564 9.34781 20.8515 8.0048 21.7968 7.28966C21.9953 8.1721 22.1166 9.0113 22.1166 9.71809C22.1166 12.6291 21.116 15.0332 19.2223 16.6699C17.5484 18.1172 15.2576 18.9193 12.5973 18.9887H11.8362C9.17021 18.92 6.86968 18.118 5.18403 16.6695C3.27722 15.0306 2.26899 12.6268 2.26899 9.71847ZM6.99062 28.8397L12.1478 26.876L17.5205 28.8397H6.99062Z" fill="#E4E4E4"/>
<path d="M10.9207 16.7382C9.77687 16.5675 8.12851 15.9339 7.32148 15.3549C5.8438 14.2919 5.09479 12.4151 5.09479 9.77651C5.09479 9.66331 5.05014 9.55475 4.97065 9.47471C4.89116 9.39467 4.78335 9.3497 4.67093 9.3497C4.55852 9.3497 4.45071 9.39467 4.37122 9.47471C4.29173 9.55475 4.24707 9.66331 4.24707 9.77651C4.24707 12.7069 5.11589 14.817 6.82943 16.0496C7.7574 16.7158 9.49994 17.3888 10.7964 17.5827C10.8514 17.591 10.9076 17.5882 10.9616 17.5746C11.0156 17.561 11.0664 17.5368 11.1111 17.5034C11.1558 17.47 11.1935 17.428 11.222 17.3799C11.2506 17.3318 11.2695 17.2785 11.2775 17.223C11.2858 17.1676 11.2831 17.1111 11.2697 17.0567C11.2562 17.0023 11.2322 16.9511 11.1991 16.906C11.1659 16.861 11.1243 16.823 11.0765 16.7942C11.0287 16.7654 10.9758 16.7463 10.9207 16.7382ZM12.5819 17.7515C12.6945 17.7515 12.8042 17.706 12.8829 17.6263C12.9622 17.5462 13.0067 17.4378 13.0067 17.3247C13.0067 17.2116 12.9622 17.1032 12.8829 17.0231C12.7288 16.8638 12.4383 16.8638 12.2839 17.0231C12.2051 17.1028 12.1595 17.2128 12.1595 17.3228C12.1595 17.4359 12.2039 17.5444 12.283 17.6247C12.3621 17.705 12.4696 17.7506 12.5819 17.7515Z" fill="#E4E4E4"/>
</svg>
