<svg width="22" height="26" viewBox="0 0 22 26" fill="none" xmlns="http://www.w3.org/2000/svg">
<g clip-path="url(#clip0_65_133)">
<path d="M21.6878 0.42516C21.65 0.345856 21.598 0.280614 21.5366 0.23544C21.4752 0.190267 21.4063 0.166614 21.3364 0.166659H0.355415C0.285328 0.166353 0.216314 0.189839 0.154758 0.234946C0.0932022 0.280054 0.0410915 0.345326 0.00324544 0.424726C-0.0346007 0.504125 -0.0569594 0.595088 -0.0617637 0.689201C-0.0665679 0.783315 -0.0536626 0.877539 -0.0242405 0.96316C-0.00418044 1.02266 2.00257 6.98716 2.65823 13.6582C3.33024 20.4927 3.34102 24.7162 3.34102 24.7577C3.34102 25.3517 3.70024 25.8357 4.14193 25.8357H17.5502C17.7625 25.8353 17.9661 25.7216 18.1162 25.5195C18.2664 25.3174 18.3508 25.0434 18.3511 24.7577C18.3511 24.7162 18.3619 20.4927 19.0339 13.6582C19.6892 6.99466 21.6963 1.02266 21.7168 0.96316C21.7457 0.877353 21.7582 0.783171 21.7531 0.6892C21.748 0.595228 21.7256 0.504457 21.6878 0.42516ZM18.2051 13.5107C17.5617 20.0572 17.5179 24.2277 17.5153 24.7107H4.17648C4.17425 24.3437 4.14788 21.8427 3.85329 17.7917H16.3213C16.4322 17.7917 16.5385 17.7324 16.6169 17.6269C16.6952 17.5214 16.7393 17.3783 16.7393 17.2292C16.7393 17.08 16.6952 16.9369 16.6169 16.8314C16.5385 16.7259 16.4322 16.6667 16.3213 16.6667H3.76748C3.6891 15.6877 3.59734 14.6367 3.48664 13.5102C2.95653 8.11516 1.56236 3.16766 0.98842 1.29116H20.703C20.1294 3.16816 18.7356 8.11516 18.2051 13.5107Z" fill="#E4E4E4"/>
<path d="M5.14159 11.0832C5.17019 11.3157 5.19583 11.5507 5.2196 11.7862C5.23429 11.934 5.292 12.068 5.38004 12.1587C5.46809 12.2493 5.57926 12.2893 5.68915 12.2697C5.799 12.2499 5.89852 12.1722 5.96582 12.0537C6.03311 11.9352 6.06268 11.7855 6.04801 11.6377C6.02374 11.3911 5.99649 11.145 5.96628 10.8997C5.48373 6.93416 4.37337 3.63366 4.32656 3.49466C4.28021 3.35928 4.19596 3.25407 4.09219 3.20199C3.98843 3.14991 3.87357 3.15518 3.77268 3.21666C3.67196 3.27884 3.59367 3.39222 3.55495 3.53196C3.51624 3.6717 3.52026 3.8264 3.56613 3.96216C3.57728 3.99516 4.67724 7.26366 5.14159 11.0832ZM5.48261 13.0677C5.43382 13.133 5.39775 13.2135 5.37761 13.302C5.35746 13.3906 5.35386 13.4845 5.36712 13.5754C5.38038 13.6662 5.4101 13.7513 5.45363 13.823C5.49716 13.8948 5.55317 13.9509 5.61669 13.9865C5.68021 14.0222 5.74927 14.0362 5.81777 14.0273C5.88626 14.0183 5.95206 13.9868 6.00935 13.9355C6.06663 13.8842 6.11362 13.8147 6.14615 13.733C6.17869 13.6514 6.19576 13.5603 6.19586 13.4677C6.19586 13.3177 6.15091 13.1727 6.07327 13.0677C5.92059 12.8577 5.63863 12.8577 5.48261 13.0677Z" fill="#E4E4E4"/>
</g>
<defs>
<clipPath id="clip0_65_133">
<rect width="22" height="26" fill="white"/>
</clipPath>
</defs>
</svg>
