<svg width="26" height="30" viewBox="0 0 26 30" fill="none" xmlns="http://www.w3.org/2000/svg">
<path d="M23.5541 1.69373H2.82099C2.56048 1.69409 2.31074 1.79873 2.12654 1.98471C1.94233 2.17069 1.83868 2.42283 1.83832 2.68584V24.3932C1.80505 24.4618 1.78271 24.5363 1.78271 24.6173C1.78271 24.6983 1.80505 24.7728 1.83832 24.8414V25.5583C1.83916 26.3819 2.16355 27.1715 2.74032 27.7539C3.31709 28.3363 4.09912 28.6639 4.91485 28.6649H21.4597C22.2756 28.6641 23.0577 28.3365 23.6346 27.7541C24.2114 27.1717 24.5359 26.382 24.5367 25.5583V2.68584C24.5363 2.42287 24.4326 2.1708 24.2484 1.98485C24.0642 1.79889 23.8145 1.69421 23.5541 1.69373ZM23.5112 2.7291V12.3001C23.1607 12.5205 19.0874 14.9488 12.4795 13.4035L10.598 11.5044C10.1345 11.0351 9.32363 11.0355 8.86056 11.504L7.75118 12.624C5.44082 12.5347 3.66829 12.8955 2.86383 13.1058V2.7291H23.5112ZM11.8988 14.5714L9.8724 16.616C9.8343 16.6542 9.78271 16.6757 9.72896 16.6756C9.6752 16.6755 9.62368 16.6539 9.58571 16.6155L7.55976 14.5719C7.52185 14.5334 7.50057 14.4813 7.50057 14.4269C7.50057 14.3726 7.52185 14.3205 7.55976 14.282L8.15455 13.6815C9.19465 13.7468 10.3359 13.9106 11.5383 14.2332C11.6714 14.2691 11.8017 14.2999 11.933 14.3326C11.9529 14.371 11.9604 14.4147 11.9542 14.4576C11.9481 14.5005 11.9287 14.5403 11.8988 14.5714ZM9.10258 12.7239L9.58571 12.2361C9.60454 12.2171 9.6269 12.202 9.65152 12.1917C9.67613 12.1815 9.70251 12.1762 9.72915 12.1762C9.75578 12.1763 9.78214 12.1816 9.80673 12.192C9.83131 12.2023 9.85363 12.2175 9.8724 12.2366L10.5852 12.9558C10.0943 12.8586 9.59966 12.7812 9.10258 12.7239ZM21.4597 27.6295H4.91439C3.7836 27.6295 2.86337 26.7 2.86337 25.5583V25.135H21.4383C21.5743 25.135 21.7047 25.0804 21.8009 24.9834C21.8971 24.8863 21.9511 24.7546 21.9511 24.6173C21.9511 24.48 21.8971 24.3483 21.8009 24.2512C21.7047 24.1542 21.5743 24.0996 21.4383 24.0996H2.86337V14.1803C3.30001 14.0538 4.73664 13.6861 6.75211 13.6516C6.56146 13.8888 6.46434 14.1887 6.4794 14.4938C6.49446 14.7989 6.62063 15.0876 6.8337 15.3045L8.85919 17.3476C8.97289 17.4635 9.10829 17.5554 9.25751 17.618C9.40673 17.6806 9.56679 17.7125 9.72837 17.7121C10.0565 17.7121 10.3651 17.5828 10.5971 17.3485L12.6244 15.3031C12.818 15.1048 12.9393 14.846 12.9685 14.5691C14.3632 14.8471 15.6426 14.9584 16.7989 14.9584C20.1708 14.9584 22.4848 14.011 23.5108 13.485V25.5588C23.5103 26.1078 23.294 26.6343 22.9095 27.0225C22.525 27.4107 22.0036 27.629 21.4597 27.6295Z" fill="#E4E4E4"/>
<path d="M19.1958 18.0931C19.1568 17.9349 19.0873 17.7861 18.9913 17.6551C18.8953 17.5241 18.7747 17.4135 18.6363 17.3296C18.4979 17.2458 18.3445 17.1903 18.1848 17.1664C18.0251 17.1425 17.8624 17.1506 17.7058 17.1902L14.9255 17.8925C14.61 17.9733 14.3389 18.1769 14.1714 18.4588C14.004 18.7407 13.9538 19.078 14.0318 19.3972L14.7268 22.2019C14.7657 22.3601 14.8352 22.509 14.9312 22.64C15.0271 22.7711 15.1478 22.8817 15.2862 22.9656C15.4246 23.0495 15.578 23.1051 15.7377 23.129C15.8974 23.153 16.0602 23.1449 16.2168 23.1052L18.9971 22.4039C19.3125 22.3229 19.5833 22.1192 19.7505 21.8373C19.9177 21.5554 19.9676 21.2181 19.8895 20.8992L19.1958 18.0931ZM18.7473 21.3989L15.9684 22.0997C15.9425 22.1064 15.9156 22.1078 15.8892 22.1039C15.8628 22.1 15.8374 22.0909 15.8145 22.077C15.7916 22.0632 15.7717 22.0449 15.7558 22.0232C15.74 22.0015 15.7286 21.9768 15.7223 21.9506L15.0272 19.1459C15.0141 19.0931 15.0223 19.0372 15.0499 18.9904C15.0776 18.9436 15.1226 18.9099 15.1749 18.8965L17.9551 18.1943C18.0072 18.182 18.0621 18.1907 18.108 18.2185C18.1538 18.2463 18.1871 18.2912 18.2008 18.3434L18.895 21.15C18.9078 21.2027 18.8995 21.2585 18.8719 21.3051C18.8442 21.3517 18.7994 21.3854 18.7473 21.3989Z" fill="#E4E4E4"/>
</svg>
