<svg width="15" height="35" viewBox="0 0 15 35" fill="none" xmlns="http://www.w3.org/2000/svg">
<g clip-path="url(#clip0_65_163)">
<path d="M8.00575 22.4409C8.00575 20.7738 9.2991 19.507 10.5502 18.2818C11.05 17.7922 11.5218 17.3299 11.9106 16.8433C13.5889 14.7421 13.5691 12.9178 13.5691 11.4525V11.1382C13.5691 7.78121 11.6209 1.68876 11.5448 1.42764H3.45395C3.37789 1.68876 1.43092 7.76224 1.43092 11.1382V11.4525C1.43092 12.9147 1.4105 14.7421 3.08885 16.8433C3.47753 17.33 3.94971 17.7923 4.44953 18.2819C5.70058 19.507 6.99424 20.774 6.99424 22.441V34.2007H2.44243V35.4145H12.5576V34.2007H8.00575V22.4409ZM4.13223 2.64146H10.8665C11.2053 3.85452 12.0999 7.39901 12.4366 9.92435H2.56217C2.89894 7.39901 3.79344 3.85452 4.13223 2.64146ZM7.5 19.7423C7.31236 19.7423 7.16822 19.6725 7.04671 19.5334C7.04678 19.534 7.04689 19.5347 7.04703 19.5353C6.49045 18.7155 5.76785 18.0061 5.08906 17.3414C4.61384 16.876 4.16498 16.4364 3.81904 16.0034C2.42479 14.2579 2.43276 12.8993 2.44117 11.461C2.4418 11.3527 2.43687 11.2449 2.44243 11.1382H12.5563C12.5619 11.2449 12.5569 11.3528 12.5576 11.461C12.566 12.8993 12.574 14.2579 11.1798 16.0034C10.8338 16.4364 10.3851 16.876 9.90986 17.3414C9.23108 18.0061 8.5086 18.7156 7.95202 19.5353C7.95214 19.5347 7.95259 19.534 7.95265 19.5334C7.83114 19.6725 7.68966 19.7423 7.5 19.7423Z" fill="#E4E4E4"/>
</g>
<defs>
<clipPath id="clip0_65_163">
<rect width="15" height="35" fill="white"/>
</clipPath>
</defs>
</svg>
